HIERARCHY
ROOT Hips
{
	OFFSET 0.00000 0.00000 0.00000
	CHANNELS 6 Xposition Yposition Zposition Zrotation Yrotation Xrotation 
	JOINT LHipJoint
	{
		OFFSET 0 0 0
		CHANNELS 3 Zrotation Yrotation Xrotation
		JOINT LeftHip
		{
			OFFSET 1.28858 -1.83292 1.03970
			CHANNELS 3 Zrotation Yrotation Xrotation
			JOINT LeftKnee
			{
				OFFSET 2.47846 -6.80952 0.00000
				CHANNELS 3 Zrotation Yrotation Xrotation
				JOINT LeftAnkle
				{
					OFFSET 2.75274 -7.56311 0.00000
					CHANNELS 3 Zrotation Yrotation Xrotation
					JOINT LeftToe
					{
						OFFSET 0.12848 -0.35301 1.68223
						CHANNELS 3 Zrotation Yrotation Xrotation
						End Site
						{
							OFFSET 0.00000 -0.00000 0.87311
						}
					}
				}
			}
		}
	}
	JOINT RHipJoint
	{
		OFFSET 0 0 0
		CHANNELS 3 Zrotation Yrotation Xrotation
		JOINT RightHip
		{
			OFFSET -1.31183 -1.83292 1.03970
			CHANNELS 3 Zrotation Yrotation Xrotation
			JOINT RightKnee
			{
				OFFSET -2.44740 -6.72417 0.00000
				CHANNELS 3 Zrotation Yrotation Xrotation
				JOINT RightAnkle
				{
					OFFSET -2.67343 -7.34519 0.00000
					CHANNELS 3 Zrotation Yrotation Xrotation
					JOINT RightToe
					{
						OFFSET -0.16914 -0.46471 1.77626
						CHANNELS 3 Zrotation Yrotation Xrotation
						End Site
						{
							OFFSET -0.00000 -0.00000 0.92777
						}
					}
				}
			}
		}
	}
	JOINT lowerback
	{
		OFFSET 0 0 0
		CHANNELS 3 Zrotation Yrotation Xrotation
		JOINT Chest
		{
			OFFSET 0.01249 2.14252 0.03842
			CHANNELS 3 Zrotation Yrotation Xrotation
			JOINT Chest2
			{
				OFFSET -0.02957 2.14199 -0.03751
				CHANNELS 3 Zrotation Yrotation Xrotation
				JOINT lowerneck
				{
					OFFSET 0 0 0
					CHANNELS 3 Zrotation Yrotation Xrotation
					JOINT Neck
					{
						OFFSET -0.01678 1.65709 -0.05476
						CHANNELS 3 Zrotation Yrotation Xrotation
						JOINT Head
						{
							OFFSET 0.07912 1.58331 -0.11843
							CHANNELS 3 Zrotation Yrotation Xrotation
							End Site
							{
								OFFSET 0.03298 1.73940 -0.04271
							}
						}
					}
				}
				JOINT LeftCollar
				{
					OFFSET 0 0 0
					CHANNELS 3 Zrotation Yrotation Xrotation
					JOINT LeftShoulder
					{
						OFFSET 3.39556 1.16496 0.08673
CHANNELS 3 Zrotation Xrotation Yrotation
						JOINT LeftElbow
						{
OFFSET 0 -5.239100 -0.000000
CHANNELS 3 Zrotation Xrotation Yrotation
							JOINT LeftWrist
							{
OFFSET 0 -3.314670 0.000000
CHANNELS 3 Zrotation Xrotation Yrotation
								JOINT lhand
								{
									OFFSET 0 0 0
CHANNELS 3 Zrotation Xrotation Yrotation
									JOINT LFingers
									{
OFFSET 0 -0.965900 0.000000
CHANNELS 3 Zrotation Xrotation Yrotation
										End Site
										{
OFFSET 0 -0.778730 0.000000
										}
									}
								}
								JOINT LThumb
								{
OFFSET 0 0.000000 0.000000
CHANNELS 3 Zrotation Xrotation Yrotation
									End Site
									{
OFFSET 0 -0.790620 0.790620
									}
								}
							}
						}
					}
				}
				JOINT RightCollar
				{
					OFFSET 0 0 0
					CHANNELS 3 Zrotation Yrotation Xrotation
					JOINT RightShoulder
					{
						OFFSET -3.27193 1.31331 0.33940
CHANNELS 3 Zrotation Xrotation Yrotation
						JOINT RightElbow
						{
OFFSET 0 -5.302520 0.000000
CHANNELS 3 Zrotation Xrotation Yrotation
							JOINT RightWrist
							{
OFFSET 0 -3.678750 0.000000
CHANNELS 3 Zrotation Xrotation Yrotation
								JOINT rhand
								{
									OFFSET 0 0 0
CHANNELS 3 Zrotation Xrotation Yrotation
									JOINT RFingers
									{
OFFSET 0 -0.594810 0.000000
CHANNELS 3 Zrotation Xrotation Yrotation
										End Site
										{
OFFSET 0 -0.479550 0.000000
										}
									}
								}
								JOINT RThumb
								{
OFFSET 0 0.000000 0.000000
CHANNELS 3 Zrotation Xrotation Yrotation
									End Site
									{
OFFSET 0 -0.486870 0.486870
									}
								}
							}
						}
					}
				}
			}
		}
	}
}
MOTION
Frames: 7
Frame Time: 0.008333333333333333
13.587657 27.530315 10.355148 38.371623 -71.749866 -35.525472 0.000000 0.000000 0.000000 -34.642502 12.322400 -27.159401 11.581644 18.202175 64.649730 1.370655 11.660043 21.279811 0.331715 3.701564 10.238644 0.000000 0.000000 0.000000 1.882428 13.956969 -33.147718 -16.103252 -19.625715 78.536085 -0.465073 -13.236405 14.304234 -0.002512 -0.024770 0.067879 -0.758038 -1.964969 6.980526 5.313454 -2.968576 5.819146 6.095491 -1.734964 2.458100 -5.352314 -4.309139 -0.762864 11.200423 -7.023812 11.372536 4.027435 -3.287727 4.076736 0.000000 0.000000 0.000000 85.490658 30.903556 -67.689674 8.052788 -13.637760 0.965249 -9.887926 -8.324028 1.550695 0.000000 0.000000 0.000000 -7.125000 0.000000 0.000000 -27.297541 27.781106 -12.829895 0.000000 0.000000 0.000000 -77.701166 4.211985 -37.126060 -42.185138 -49.303757 -20.083523 -18.164839 -53.894974 26.978483 0.000000 0.000000 0.000000 7.125000 0.000000 0.000000 13.449471 57.652827 -4.255314
13.700302 27.920858 10.419937 46.993609 -74.874837 -43.317765 0.000000 0.000000 0.000000 -34.537668 10.478406 -31.596614 13.313136 18.878643 70.083046 1.233325 11.349268 20.215781 0.342586 3.760838 10.404861 0.000000 0.000000 0.000000 1.755820 15.516488 -36.997416 -18.057443 -19.896132 84.308971 -0.393717 -11.789610 12.984451 -0.039990 1.217966 -3.349808 -0.174158 -1.607284 8.264364 5.665163 -2.555846 6.696932 6.158301 -1.567895 2.619872 -5.631274 -4.935693 -0.493970 11.168536 -7.878256 11.400276 4.025424 -3.725792 4.124394 0.000000 0.000000 0.000000 78.132418 36.311621 -64.566373 7.183865 -12.220516 0.771226 -9.909299 -4.271280 2.652614 0.000000 0.000000 0.000000 -7.125000 0.000000 0.000000 -27.044853 26.784359 -13.409000 0.000000 0.000000 0.000000 -74.206871 2.145554 -34.363236 -38.606411 -47.201019 -17.416104 -20.023779 -53.141552 34.140380 0.000000 0.000000 0.000000 7.125000 0.000000 0.000000 16.642560 65.072626 -8.227426
13.813089 28.291665 10.484477 57.712489 -77.625815 -52.979435 0.000000 0.000000 0.000000 -33.586154 7.918590 -36.277004 15.116829 19.403423 75.578091 1.168314 10.445580 19.578678 0.302471 3.532422 9.765146 0.000000 0.000000 0.000000 1.929077 16.866307 -41.132775 -19.954908 -19.985595 89.868021 -0.285548 -10.836552 11.380375 -0.142840 2.380859 -6.562026 0.698775 -1.292949 9.395965 5.992399 -2.189920 7.552240 6.020444 -1.414175 2.847625 -5.848497 -5.639867 -0.377372 11.184976 -8.828729 11.347063 4.017413 -4.200062 4.184236 0.000000 0.000000 0.000000 69.839509 40.796991 -60.050766 6.466381 -11.036807 0.626528 -8.580938 -1.234465 3.752213 0.000000 0.000000 0.000000 -7.125000 0.000000 0.000000 -25.892203 25.846367 -13.347409 0.000000 0.000000 0.000000 -70.746845 0.055188 -30.815315 -35.256709 -44.972185 -15.002039 -21.427255 -52.308734 37.654916 0.000000 0.000000 0.000000 7.125000 0.000000 0.000000 18.676814 68.792035 -10.799344
13.926089 28.636333 10.546952 71.803894 -79.662517 -65.949213 0.000000 0.000000 0.000000 -32.046055 4.940891 -40.938506 16.908169 19.758365 80.921431 1.164053 8.987848 19.375682 0.221183 3.018797 8.331661 0.000000 0.000000 0.000000 2.140710 17.860934 -45.401992 -21.796891 -19.911399 95.262629 -0.163565 -10.413409 9.662515 -0.351371 3.766918 -10.426437 1.627543 -1.002571 10.554549 6.182176 -1.848678 8.424335 5.701585 -1.265471 3.091149 -6.086559 -6.339637 -0.228799 11.457025 -9.774199 11.065529 4.092398 -4.665915 4.184848 0.000000 0.000000 0.000000 60.664494 44.104430 -53.432527 5.841243 -9.996614 0.512037 -6.625585 1.524649 4.976673 0.000000 0.000000 0.000000 -7.125000 0.000000 0.000000 -24.305002 24.797913 -13.023225 0.000000 0.000000 0.000000 -67.073020 -1.968658 -26.735381 -32.365557 -42.822342 -12.993676 -21.876542 -51.554000 38.175511 0.000000 0.000000 0.000000 7.125000 0.000000 0.000000 18.764233 69.413983 -11.106493
14.038255 28.962083 10.608509 88.728910 -80.719573 -81.804326 0.000000 0.000000 0.000000 -30.091827 1.780955 -45.384192 18.599149 19.949903 85.900401 1.196158 7.035580 19.541069 0.114577 2.173776 5.986449 0.000000 0.000000 0.000000 2.336169 18.384213 -49.611213 -23.554249 -19.691045 100.444579 -0.032157 -10.557323 7.895431 -0.722488 5.418906 -15.110165 2.533445 -0.728194 11.857349 6.219335 -1.517414 9.310543 5.233039 -1.115256 3.289259 -6.383153 -6.994835 0.005878 12.116465 -10.667281 10.494977 4.303554 -5.101960 4.106594 0.000000 0.000000 0.000000 50.931322 45.956677 -44.479524 5.243843 -8.995176 0.413017 -4.802566 4.756986 6.419868 0.000000 0.000000 0.000000 -7.125000 0.000000 0.000000 -22.790946 23.515920 -12.812934 0.000000 0.000000 0.000000 -63.089536 -3.880041 -22.696112 -30.072879 -40.952647 -11.458458 -21.371263 -50.379407 37.561178 0.000000 0.000000 0.000000 7.125000 0.000000 0.000000 18.605356 68.688559 -10.708526
14.151256 29.255813 10.666837 105.078952 -80.724472 -97.164235 0.000000 0.000000 0.000000 -27.745705 -1.489335 -49.658631 20.155197 19.995372 90.454016 1.232708 4.738869 19.967325 0.029389 1.037704 2.853113 0.000000 0.000000 0.000000 2.551100 18.361816 -53.768582 -25.227362 -19.326146 105.453480 0.116262 -11.322123 6.086549 -1.242317 7.054507 -19.882552 3.410601 -0.473981 13.329645 6.149295 -1.193450 10.174547 4.665830 -0.962796 3.399226 -6.680181 -7.598472 0.300580 13.118221 -11.480675 9.601436 4.629748 -5.499302 3.942467 0.000000 0.000000 0.000000 41.473734 46.144431 -36.417819 4.710133 -8.094619 0.333725 -3.525208 6.325711 7.661097 0.000000 0.000000 0.000000 -7.125000 0.000000 0.000000 -21.713462 22.384008 -12.725140 0.000000 0.000000 0.000000 -58.801924 -5.645862 -19.187257 -28.335442 -39.420540 -10.337050 -20.272841 -48.477740 36.629573 0.000000 0.000000 0.000000 7.125000 0.000000 0.000000 18.825137 67.490846 -10.329555
14.263869 29.522634 10.725102 117.751287 -79.972780 -108.910561 0.000000 0.000000 0.000000 -25.192322 -4.785711 -53.820540 21.554983 19.935394 94.552306 1.245639 2.300167 20.487152 0.009811 -0.324648 -0.892575 0.000000 0.000000 0.000000 2.716274 17.816491 -57.838782 -26.803555 -18.841217 110.275780 0.283561 -12.483987 4.217304 -1.744844 8.303216 -23.644709 4.203199 -0.239867 14.928202 6.021930 -0.878895 10.987891 4.082298 -0.813891 3.418865 -6.899266 -8.159212 0.607965 14.225716 -12.185889 8.371248 4.987363 -5.853728 3.678720 0.000000 0.000000 0.000000 33.095181 44.987445 -29.535516 4.268532 -7.345812 0.274470 -3.316882 7.458292 8.579309 0.000000 0.000000 0.000000 -7.125000 0.000000 0.000000 -21.429970 21.530764 -12.988533 0.000000 0.000000 0.000000 -54.411191 -7.251925 -16.271445 -26.993884 -38.170024 -9.496692 -19.144437 -46.105060 35.766185 0.000000 0.000000 0.000000 7.125000 0.000000 0.000000 19.197138 66.357404 -10.044100
